HIERARCHY
ROOT Hips
{
	OFFSET 0.000000 0.000000 0.000000
	CHANNELS 6 Xposition Yposition Zposition Yrotation Xrotation Zrotation
	JOINT Chest
	{
		OFFSET 0.000000 -0.009281 11.569106
		CHANNELS 3 Yrotation Xrotation Zrotation
		JOINT Chest2
		{
			OFFSET -0.000000 0.016865 9.269641
			CHANNELS 3 Yrotation Xrotation Zrotation
			JOINT Chest3
			{
				OFFSET -0.000000 0.000001 8.374491
				CHANNELS 3 Yrotation Xrotation Zrotation
				JOINT Chest4
				{
					OFFSET -0.000000 0.000001 8.374493
					CHANNELS 3 Yrotation Xrotation Zrotation
					JOINT Neck
					{
						OFFSET -0.000000 0.000002 12.152554
						CHANNELS 3 Yrotation Xrotation Zrotation
						JOINT Head
						{
							OFFSET -0.000000 0.040101 7.802319
							CHANNELS 3 Yrotation Xrotation Zrotation
							End Site
							{
								OFFSET -0.000000 0.020947 14.853096
							}
						}
					}
					JOINT RightCollar
					{
						OFFSET 2.894404 0.000001 6.791374
						CHANNELS 3 Yrotation Xrotation Zrotation
						JOINT RightShoulder
						{
							OFFSET 13.574684 0.000001 0.000000
							CHANNELS 3 Yrotation Xrotation Zrotation
							JOINT RightElbow
							{
								OFFSET 23.923903 0.000002 0.000000
								CHANNELS 3 Yrotation Xrotation Zrotation
								JOINT RightWrist
								{
									OFFSET 19.846718 0.012767 0.000000
									CHANNELS 3 Yrotation Xrotation Zrotation
									End Site
									{
										OFFSET 14.973145 0.000001 0.000000
									}
								}
							}
						}
					}
					JOINT LeftCollar
					{
						OFFSET -2.894404 0.000001 6.791374
						CHANNELS 3 Yrotation Xrotation Zrotation
						JOINT LeftShoulder
						{
							OFFSET -13.574684 -0.000001 0.000000
							CHANNELS 3 Yrotation Xrotation Zrotation
							JOINT LeftElbow
							{
								OFFSET -23.923903 -0.000002 0.000000
								CHANNELS 3 Yrotation Xrotation Zrotation
								JOINT LeftWrist
								{
									OFFSET -19.846718 0.012763 0.000000
									CHANNELS 3 Yrotation Xrotation Zrotation
									End Site
									{
										OFFSET -14.973145 -0.000001 0.000000
									}
								}
							}
						}
					}
				}
			}
		}
	}
	JOINT RightHip
	{
		OFFSET 9.469263 0.004643 0.045487
		CHANNELS 3 Yrotation Xrotation Zrotation
		JOINT RightKnee
		{
			OFFSET 0.000000 0.002661 -40.478676
			CHANNELS 3 Yrotation Xrotation Zrotation
			JOINT RightAnkle
			{
				OFFSET 0.000000 0.049106 -35.224068
				CHANNELS 3 Yrotation Xrotation Zrotation
				JOINT RightToe
				{
					OFFSET -0.000001 12.539529 -6.151390
					CHANNELS 3 Yrotation Xrotation Zrotation
					End Site
					{
						OFFSET -0.000001 5.044994 -1.291870
					}
				}
			}
		}
	}
	JOINT LeftHip
	{
		OFFSET -9.469263 0.004641 0.045487
		CHANNELS 3 Yrotation Xrotation Zrotation
		JOINT LeftKnee
		{
			OFFSET 0.000000 0.002661 -40.478676
			CHANNELS 3 Yrotation Xrotation Zrotation
			JOINT LeftAnkle
			{
				OFFSET 0.000000 0.049106 -35.224068
				CHANNELS 3 Yrotation Xrotation Zrotation
				JOINT LeftToe
				{
					OFFSET -0.000001 12.539529 -6.151390
					CHANNELS 3 Yrotation Xrotation Zrotation
					End Site
					{
						OFFSET -0.000001 5.044994 -1.291870
					}
				}
			}
		}
	}
}
MOTION
Frames: 9
Frame Time: 0.016667
10.600951 4.044505 82.921387 -8.525233 -4.455384 -114.927796 -0.331226 -3.591477 0.234411 -0.143992 -1.593502 0.108907 -0.143992 -1.593502 0.108908 -0.107704 -1.195152 0.081301 1.665452 -21.264788 1.444735 3.437854 -3.368952 3.101396 1.988708 -0.536678 -3.244315 73.660284 -21.088153 38.175112 -9.151895 -31.824030 60.750428 -38.765353 24.144879 59.957839 -10.366783 -0.767818 -10.108496 -72.007959 2.487696 -41.490298 -43.395262 26.782121 -36.171794 -11.133530 41.413489 -2.212006 0.020178 -11.899557 0.241673 0.156808 -2.552972 -2.147376 0.777259 4.903576 5.146755 -0.009679 -0.023506 0.005331 -0.332045 -13.151283 2.509410 1.245868 -1.441076 4.648541 -0.857002 5.194256 -1.978667 0.004630 -0.015802 -0.005305 
10.586206 4.055742 82.922440 -8.532803 -4.461997 -114.932700 -0.329057 -3.604201 0.235746 -0.142880 -1.599381 0.109351 -0.142880 -1.599381 0.109350 -0.106866 -1.199562 0.081631 1.662851 -21.254907 1.443757 3.433170 -3.350473 3.099199 1.991183 -0.538268 -3.241028 73.618197 -21.082212 38.220038 -9.174890 -31.804964 60.808341 -38.752550 24.128598 59.950633 -10.365637 -0.765225 -10.114062 -71.991246 2.481089 -41.492631 -43.405658 26.773329 -36.182425 -11.141797 41.422051 -2.201837 0.018702 -11.885083 0.260706 0.159088 -2.573608 -2.169748 0.780194 4.898476 5.137635 -0.007936 -0.021898 0.005599 -0.331869 -13.143091 2.510617 1.242531 -1.451079 4.654624 -0.854153 5.188161 -1.988641 0.005430 -0.016387 -0.005822 
10.569004 4.068806 82.923370 -8.533826 -4.465812 -114.938519 -0.328830 -3.617146 0.238139 -0.142515 -1.605456 0.110078 -0.142515 -1.605456 0.110080 -0.106590 -1.204118 0.082181 1.664703 -21.242484 1.440225 3.435900 -3.327343 3.093735 1.994065 -0.529460 -3.246704 73.583609 -21.085400 38.272781 -9.185235 -31.796894 60.842130 -38.724137 24.095999 59.928025 -10.363332 -0.760065 -10.123751 -71.981499 2.479201 -41.502429 -43.406781 26.769217 -36.183303 -11.131896 41.410600 -2.191751 0.015038 -11.856077 0.280940 0.161558 -2.605825 -2.185661 0.784392 4.896156 5.152085 -0.006259 -0.019454 0.005478 -0.333858 -13.124183 2.501503 1.240586 -1.464800 4.668853 -0.851066 5.182333 -1.973755 0.006693 -0.017164 -0.005951 
10.550621 4.082842 82.924187 -8.534208 -4.467400 -114.945363 -0.327587 -3.627977 0.240069 -0.142352 -1.610359 0.110502 -0.142352 -1.610358 0.110506 -0.106466 -1.207795 0.082499 1.665563 -21.233359 1.436171 3.436573 -3.310277 3.086934 1.992908 -0.524570 -3.251213 73.556909 -21.080383 38.326401 -9.146832 -31.796016 60.835122 -38.678036 24.052120 59.913559 -10.367155 -0.750706 -10.131941 -71.978330 2.480190 -41.509843 -43.386239 26.767122 -36.174232 -11.112294 41.407646 -2.195693 0.009502 -11.826665 0.303691 0.166668 -2.632609 -2.199684 0.785040 4.890558 5.157076 -0.004500 -0.018259 0.005554 -0.336481 -13.103995 2.501006 1.237433 -1.475301 4.680615 -0.848895 5.173731 -1.966753 0.008327 -0.018059 -0.005595 
10.533669 4.096012 82.925468 -8.534646 -4.469559 -114.952890 -0.326599 -3.638433 0.241048 -0.142036 -1.614748 0.110693 -0.142035 -1.614747 0.110697 -0.106228 -1.211086 0.082641 1.665857 -21.226619 1.432819 3.436347 -3.297641 3.081155 1.987609 -0.529302 -3.254336 73.524036 -21.090846 38.381196 -9.125421 -31.781260 60.833804 -38.647263 24.051429 59.924849 -10.371475 -0.741643 -10.135202 -71.980679 2.476680 -41.517073 -43.364915 26.770650 -36.169458 -11.089587 41.412270 -2.205345 0.005073 -11.803036 0.313431 0.168595 -2.650034 -2.204293 0.787628 4.879914 5.161588 -0.003097 -0.016407 0.005748 -0.334993 -13.089919 2.516276 1.229482 -1.475663 4.675096 -0.847438 5.160698 -1.978242 0.011607 -0.018515 -0.005303 
10.518212 4.106402 82.926857 -8.533235 -4.471904 -114.960335 -0.326090 -3.648915 0.242258 -0.141955 -1.619049 0.110970 -0.141954 -1.619049 0.110969 -0.106165 -1.214312 0.082846 1.667085 -21.221256 1.431432 3.438346 -3.287675 3.079178 1.986322 -0.529255 -3.253744 73.481251 -21.110484 38.428724 -9.131164 -31.751579 60.851132 -38.644503 24.074878 59.942567 -10.372808 -0.735627 -10.137539 -71.986417 2.473959 -41.531225 -43.363508 26.789009 -36.173881 -11.081542 41.420005 -2.220876 0.004935 -11.783541 0.310749 0.164786 -2.660115 -2.199470 0.791629 4.867179 5.181256 -0.001415 -0.014486 0.006290 -0.333108 -13.079665 2.540098 1.224641 -1.468338 4.663235 -0.848535 5.144527 -1.993046 0.014268 -0.018178 -0.005096 
10.505645 4.116023 82.928085 -8.531598 -4.473999 -114.967356 -0.324336 -3.654890 0.242629 -0.141123 -1.621432 0.110858 -0.141123 -1.621432 0.110859 -0.105541 -1.216100 0.082762 1.666540 -21.220372 1.433070 3.437860 -3.286083 3.082020 1.988119 -0.540694 -3.250073 73.435537 -21.112367 38.477164 -9.131306 -31.737191 60.881403 -38.638575 24.074439 59.932410 -10.375956 -0.733597 -10.134272 -71.987277 2.462603 -41.537266 -43.387264 26.814703 -36.198227 -11.089649 41.441674 -2.223629 0.006426 -11.765692 0.315429 0.164232 -2.668355 -2.212340 0.793781 4.855451 5.170863 -0.001581 -0.013522 0.005691 -0.333741 -13.071662 2.558435 1.222712 -1.460615 4.661075 -0.851223 5.129558 -1.998772 0.016731 -0.017226 -0.004681 
10.492231 4.123246 82.928993 -8.526592 -4.474842 -114.973353 -0.322428 -3.657573 0.242473 -0.140218 -1.622725 0.110577 -0.140218 -1.622725 0.110575 -0.104863 -1.217070 0.082551 1.665829 -21.221367 1.436944 3.437654 -3.288051 3.088810 1.990490 -0.548545 -3.256314 73.390178 -21.085748 38.531068 -9.115817 -31.763644 60.922945 -38.630013 24.057352 59.912637 -10.378482 -0.738240 -10.136240 -71.987919 2.468287 -41.545613 -43.408629 26.821200 -36.220384 -11.109946 41.431880 -2.209421 0.003887 -11.746808 0.326184 0.165134 -2.675742 -2.231367 0.798982 4.844891 5.205239 -0.001395 -0.012363 0.006330 -0.331331 -13.058796 2.567029 1.218482 -1.455837 4.660599 -0.853506 5.116656 -1.990456 0.018526 -0.017052 -0.004817 
10.480516 4.133525 82.929657 -8.523189 -4.475458 -114.975552 -0.321738 -3.659449 0.241416 -0.139150 -1.623625 0.109774 -0.139150 -1.623626 0.109776 -0.104064 -1.217744 0.081957 1.666379 -21.224005 1.439747 3.439385 -3.293092 3.093961 1.991726 -0.553090 -3.265258 73.349613 -21.056596 38.576003 -9.144326 -31.804134 60.987476 -38.614495 24.031228 59.897050 -10.381286 -0.737367 -10.135132 -71.988678 2.470471 -41.552600 -43.409947 26.809602 -36.221975 -11.133990 41.431716 -2.210885 0.001174 -11.721607 0.340632 0.171428 -2.697126 -2.250989 0.799640 4.841767 5.214021 -0.001907 -0.012001 0.005125 -0.332171 -13.044563 2.568586 1.216904 -1.456027 4.659691 -0.854064 5.106176 -1.982934 0.019125 -0.017095 -0.004962 
